<?xml version="1.0" standalone="no"?>
<!DOCTYPE svg PUBLIC "-//W3C//DTD SVG 20010904//EN"
 "http://www.w3.org/TR/2001/REC-SVG-20010904/DTD/svg10.dtd">
<svg version="1.0" xmlns="http://www.w3.org/2000/svg"
 width="752.000000pt" height="752.000000pt" viewBox="0 0 752.000000 752.000000"
 preserveAspectRatio="xMidYMid meet">
<metadata>
Created by potrace 1.14, written by Peter Selinger 2001-2017
</metadata>
<g transform="translate(0.000000,752.000000) scale(0.100000,-0.100000)"
fill="#000000" stroke="none">
<path d="M1880 5640 c-206 -206 -250 -255 -250 -278 0 -37 160 -198 204 -206
28 -5 47 12 268 232 132 130 246 250 254 265 8 15 12 36 9 46 -3 10 -45 57
-94 104 -65 64 -95 87 -115 87 -20 0 -77 -51 -276 -250z"/>
<path d="M2761 5639 c-197 -197 -251 -256 -251 -276 0 -33 162 -199 203 -209
26 -6 45 11 277 241 142 142 251 258 255 272 8 33 -6 52 -101 146 -58 58 -85
77 -105 77 -22 0 -74 -47 -278 -251z"/>
<path d="M3642 5638 c-196 -196 -252 -257 -252 -277 0 -18 25 -50 94 -119 86
-86 97 -94 123 -88 34 8 511 479 519 513 8 30 -1 44 -96 139 -63 63 -89 84
-109 84 -22 0 -76 -49 -279 -252z"/>
<path d="M4522 5637 c-191 -192 -252 -259 -252 -277 0 -34 178 -210 211 -210
36 0 529 496 529 531 0 38 -172 209 -209 209 -21 0 -77 -50 -279 -253z"/>
<path d="M5407 5642 c-196 -196 -249 -254 -252 -277 -2 -26 9 -42 84 -118 64
-64 95 -89 117 -92 26 -3 53 20 282 248 206 205 252 256 252 279 0 39 -168
208 -207 208 -22 0 -73 -46 -276 -248z"/>
<path d="M2162 5360 c-71 -70 -92 -97 -92 -118 0 -21 48 -75 254 -281 239
-238 256 -253 283 -247 37 9 190 162 199 199 6 27 -9 45 -247 283 -202 202
-259 254 -280 254 -19 0 -49 -23 -117 -90z"/>
<path d="M3042 5358 c-68 -67 -92 -99 -92 -117 0 -20 56 -81 254 -280 239
-239 256 -253 283 -247 33 8 191 161 199 193 3 12 1 30 -4 40 -6 10 -120 127
-253 260 -194 194 -248 243 -269 243 -20 0 -49 -23 -118 -92z"/>
<path d="M3922 5356 c-64 -64 -92 -101 -92 -117 0 -17 65 -89 253 -277 234
-233 256 -253 282 -248 34 6 193 158 201 193 3 12 1 30 -4 39 -6 10 -119 127
-253 261 -194 195 -248 243 -269 243 -20 0 -48 -22 -118 -94z"/>
<path d="M4802 5356 c-62 -63 -92 -101 -92 -116 0 -17 66 -90 238 -262 130
-132 250 -246 265 -254 15 -8 36 -12 46 -9 10 3 57 45 104 94 63 64 87 95 87
114 0 20 -54 79 -251 276 -205 206 -256 251 -278 251 -21 0 -48 -21 -119 -94z"/>
<path d="M2132 5003 c-6 -2 -122 -115 -257 -250 -196 -197 -245 -251 -245
-272 0 -36 174 -211 209 -211 32 0 517 481 527 523 6 25 -3 37 -87 122 -89 91
-109 103 -147 88z"/>
<path d="M2776 4773 c-131 -131 -245 -248 -253 -260 -24 -36 -9 -63 87 -157
80 -79 93 -88 117 -82 41 10 523 494 523 525 0 35 -175 211 -210 211 -21 0
-75 -49 -264 -237z"/>
<path d="M3644 4759 c-192 -192 -254 -260 -254 -279 0 -17 27 -51 94 -118 86
-86 97 -94 123 -88 43 10 523 494 523 526 0 34 -161 199 -202 207 -28 5 -46
-10 -284 -248z"/>
<path d="M4524 4759 c-189 -190 -254 -260 -254 -278 0 -37 168 -204 208 -207
26 -2 57 26 282 251 236 236 252 255 247 282 -8 39 -161 192 -200 200 -27 5
-48 -13 -283 -248z"/>
<path d="M5408 4763 c-158 -158 -249 -258 -253 -275 -6 -24 3 -38 81 -118 87
-90 118 -110 149 -93 16 9 377 365 461 455 27 29 44 56 44 72 0 35 -172 206
-208 206 -21 0 -78 -52 -274 -247z"/>
<path d="M2218 4533 c-94 -84 -148 -149 -148 -176 0 -17 66 -89 243 -266 133
-133 250 -247 260 -253 10 -5 28 -7 40 -4 32 8 185 166 193 199 6 27 -8 44
-247 283 -180 180 -261 254 -277 254 -12 0 -41 -17 -64 -37z"/>
<path d="M3043 4477 c-66 -66 -93 -100 -93 -117 0 -19 62 -86 253 -277 191
-191 258 -253 277 -253 17 0 51 27 117 93 66 66 93 100 93 117 0 19 -62 86
-253 277 -191 191 -258 253 -277 253 -17 0 -51 -27 -117 -93z"/>
<path d="M3923 4477 c-66 -66 -93 -100 -93 -117 0 -35 495 -530 529 -530 16 0
52 27 113 87 91 89 107 117 90 150 -11 20 -468 478 -492 493 -33 21 -56 8
-147 -83z"/>
<path d="M4809 4483 c-53 -53 -91 -99 -95 -116 -6 -27 9 -45 247 -283 169
-168 261 -254 275 -254 27 0 73 37 152 122 39 43 62 76 62 91 0 34 -494 527
-528 527 -18 0 -50 -25 -113 -87z"/>
<path d="M2130 4120 c-8 -5 -124 -118 -257 -251 -199 -199 -243 -247 -243
-270 0 -21 21 -47 93 -118 83 -83 95 -91 122 -86 40 7 510 476 521 518 6 26
-2 37 -88 123 -92 92 -115 105 -148 84z"/>
<path d="M2768 3883 c-137 -137 -251 -258 -254 -271 -8 -29 8 -52 94 -136 81
-80 96 -90 125 -82 12 3 133 117 270 254 185 186 247 254 247 272 0 34 -176
210 -210 210 -18 0 -86 -62 -272 -247z"/>
<path d="M3643 3878 c-194 -194 -253 -258 -253 -277 0 -18 26 -51 93 -118 67
-67 100 -93 118 -93 35 0 529 495 529 530 0 17 -27 51 -93 117 -66 66 -100 93
-117 93 -18 0 -87 -63 -277 -252z"/>
<path d="M4523 3877 c-191 -191 -253 -258 -253 -277 0 -33 176 -210 210 -210
23 0 233 197 444 418 78 82 88 96 83 121 -8 40 -173 201 -207 201 -19 0 -82
-58 -277 -253z"/>
<path d="M5408 3883 c-158 -158 -249 -258 -253 -275 -6 -24 3 -38 81 -118 89
-92 118 -110 151 -92 10 6 127 120 260 253 192 192 243 248 243 268 0 19 -23
49 -81 109 -84 86 -106 102 -135 102 -10 0 -128 -110 -266 -247z"/>
<path d="M2163 3597 c-68 -68 -93 -100 -93 -118 0 -19 55 -80 243 -268 133
-133 249 -246 257 -251 8 -5 24 -10 35 -10 28 0 192 166 201 203 6 27 -8 44
-247 283 -193 192 -260 254 -279 254 -17 0 -51 -27 -117 -93z"/>
<path d="M3042 3596 c-78 -78 -93 -98 -90 -120 5 -40 492 -526 527 -526 35 0
211 175 211 210 0 19 -62 86 -253 277 -191 191 -258 253 -277 253 -17 0 -51
-27 -118 -94z"/>
<path d="M3929 3603 c-61 -60 -91 -98 -95 -118 -5 -28 10 -45 248 -282 190
-190 260 -253 278 -253 34 0 210 176 210 210 0 35 -495 530 -529 530 -17 0
-51 -27 -112 -87z"/>
<path d="M4804 3599 c-82 -81 -93 -96 -90 -122 5 -42 489 -527 526 -527 18 0
49 24 108 82 88 86 102 105 102 136 0 16 -458 486 -500 512 -32 20 -56 7 -146
-81z"/>
<path d="M1882 2997 c-203 -203 -252 -257 -252 -279 0 -37 171 -208 208 -208
21 0 78 52 274 248 163 162 249 256 254 275 6 25 -3 37 -88 122 -67 67 -102
95 -119 95 -18 0 -87 -63 -277 -253z"/>
<path d="M2761 2996 c-194 -194 -251 -257 -251 -276 0 -36 172 -210 209 -210
36 0 531 493 531 529 0 37 -168 204 -208 207 -26 2 -57 -26 -281 -250z"/>
<path d="M3895 3240 c-35 -15 -505 -494 -505 -515 0 -28 7 -36 100 -131 62
-63 90 -84 109 -84 21 0 77 50 270 243 134 134 248 251 253 261 18 31 0 60
-90 149 -90 87 -100 93 -137 77z"/>
<path d="M4523 2997 c-191 -191 -253 -258 -253 -277 0 -34 176 -210 211 -210
37 0 529 492 529 528 0 36 -175 212 -210 212 -19 0 -86 -62 -277 -253z"/>
<path d="M5655 3240 c-36 -15 -493 -483 -500 -512 -6 -24 4 -38 86 -123 86
-89 96 -96 125 -92 46 8 524 487 524 527 0 28 -14 45 -128 153 -61 58 -71 62
-107 47z"/>
<path d="M2163 2717 c-69 -70 -93 -100 -93 -119 0 -38 490 -528 527 -528 35 0
201 163 209 204 5 27 -13 47 -233 268 -222 223 -273 268 -304 268 -7 0 -55
-42 -106 -93z"/>
<path d="M3135 2800 c-11 -4 -57 -46 -102 -93 -58 -59 -83 -92 -83 -109 0 -34
493 -528 527 -528 16 0 49 23 97 68 91 85 120 124 113 154 -8 28 -497 518
-517 517 -8 0 -24 -4 -35 -9z"/>
<path d="M3928 2722 c-91 -88 -108 -117 -90 -149 6 -10 120 -127 253 -260 239
-239 262 -257 298 -234 24 16 162 153 172 173 6 11 8 30 5 41 -3 12 -115 132
-250 266 -187 187 -250 244 -272 247 -23 2 -42 -11 -116 -84z"/>
<path d="M4895 2800 c-11 -5 -56 -45 -99 -89 -59 -60 -80 -89 -82 -110 -2 -25
29 -59 250 -280 200 -200 257 -251 278 -251 38 0 208 171 208 209 0 22 -47 74
-244 270 -134 134 -250 247 -257 252 -17 11 -28 10 -54 -1z"/>
<path d="M1883 2117 c-206 -205 -253 -257 -253 -279 0 -39 169 -208 207 -208
22 0 75 48 275 247 136 136 251 255 254 265 9 28 -20 70 -105 151 -52 49 -89
77 -103 77 -16 0 -95 -73 -275 -253z"/>
<path d="M3015 2360 c-11 -4 -129 -118 -262 -252 -189 -189 -243 -250 -243
-269 0 -37 171 -209 209 -209 21 0 73 47 271 245 135 134 249 254 254 265 14
30 -7 60 -101 151 -83 80 -92 85 -128 69z"/>
<path d="M3895 2360 c-36 -15 -505 -494 -505 -516 0 -27 16 -48 106 -137 57
-57 84 -77 104 -77 38 0 530 491 530 529 0 18 -25 50 -93 118 -93 93 -104 99
-142 83z"/>
<path d="M4523 2117 c-195 -195 -253 -259 -253 -278 0 -37 174 -209 211 -209
39 0 529 489 529 528 0 35 -175 212 -210 212 -18 0 -87 -63 -277 -253z"/>
<path d="M5660 2363 c-32 -12 -498 -488 -505 -516 -7 -25 2 -37 86 -122 73
-75 99 -95 121 -95 23 0 70 42 278 250 203 203 250 255 250 277 0 21 -22 49
-93 120 -89 89 -104 98 -137 86z"/>
</g>
</svg>
